<svg width="53" height="52" viewBox="0 0 53 52" fill="none" xmlns="http://www.w3.org/2000/svg">
<rect x="0.333008" width="52" height="52" rx="10" fill="#FFEFE3"/>
<mask id="mask0_2502_1003" style="mask-type:alpha" maskUnits="userSpaceOnUse" x="12" y="10" width="28" height="28">
<rect x="12" y="10" width="28" height="28" fill="#D9D9D9"/>
</mask>
<g mask="url(#mask0_2502_1003)">
<path d="M21.332 28.6693H27.1654V22.8359H21.332V28.6693ZM21.332 20.5026H35.332V14.6693H21.332V20.5026ZM29.4987 28.6693H35.332V22.8359H29.4987V28.6693ZM21.332 31.0026C20.6904 31.0026 20.1411 30.7741 19.6841 30.3172C19.2272 29.8602 18.9987 29.3109 18.9987 28.6693V14.6693C18.9987 14.0276 19.2272 13.4783 19.6841 13.0214C20.1411 12.5644 20.6904 12.3359 21.332 12.3359H35.332C35.9737 12.3359 36.523 12.5644 36.9799 13.0214C37.4369 13.4783 37.6654 14.0276 37.6654 14.6693V28.6693C37.6654 29.3109 37.4369 29.8602 36.9799 30.3172C36.523 30.7741 35.9737 31.0026 35.332 31.0026H21.332ZM16.6654 35.6693C16.0237 35.6693 15.4744 35.4408 15.0174 34.9839C14.5605 34.5269 14.332 33.9776 14.332 33.3359V17.0026H16.6654V33.3359H32.9987V35.6693H16.6654Z" fill="#FFAA17"/>
</g>
</svg>
