<svg width="52" height="52" viewBox="0 0 52 52" fill="none" xmlns="http://www.w3.org/2000/svg">
<rect width="52" height="52" rx="10" fill="#DEF5D6"/>
<mask id="mask0_179_908" style="mask-type:alpha" maskUnits="userSpaceOnUse" x="9" y="10" width="32" height="31">
<rect x="9" y="10" width="32" height="30.1176" fill="#D9D9D9"/>
</mask>
<g mask="url(#mask0_179_908)">
<path d="M16.0763 35.7259C15.4113 35.7259 14.8434 35.5043 14.3724 35.061C13.9015 34.6178 13.666 34.0832 13.666 33.4574V16.6611C13.666 16.0353 13.9015 15.5007 14.3724 15.0575C14.8434 14.6142 15.4113 14.3926 16.0763 14.3926H22.0096C22.0934 13.696 22.4164 13.1036 22.9788 12.6153C23.5412 12.127 24.2147 11.8828 24.9993 11.8828C25.7925 11.8828 26.4702 12.127 27.0326 12.6153C27.595 13.1036 27.9138 13.696 27.989 14.3926H33.9223C34.5873 14.3926 35.1553 14.6142 35.6262 15.0575C36.0971 15.5007 36.3326 16.0353 36.3326 16.6611V24.5983C36.0044 24.4664 35.6758 24.3546 35.3467 24.2629C35.0177 24.1712 34.6797 24.098 34.3327 24.0433V16.6611C34.3327 16.5646 34.2899 16.4761 34.2044 16.3956C34.119 16.3152 34.0249 16.2749 33.9223 16.2749H16.0763C15.9737 16.2749 15.8797 16.3152 15.7942 16.3956C15.7087 16.4761 15.666 16.5646 15.666 16.6611V33.4574C15.666 33.5539 15.7087 33.6424 15.7942 33.7229C15.8797 33.8033 15.9737 33.8436 16.0763 33.8436H23.8865C23.9361 34.1911 24.0096 34.5197 24.107 34.8294C24.2044 35.1391 24.3232 35.4379 24.4634 35.7259H16.0763ZM15.666 33.8436V16.2749V24.0433V23.9492V33.8436ZM18.666 30.8752H24.0224C24.0805 30.5486 24.1668 30.2305 24.2814 29.9208C24.3959 29.6111 24.5207 29.3018 24.6557 28.9929H18.666V30.8752ZM18.666 26.0004H27.1199C27.6942 25.5419 28.307 25.1578 28.9583 24.8481C29.6095 24.5384 30.307 24.3184 31.0506 24.1881V24.1181H18.666V26.0004ZM18.666 21.1256H31.3326V19.2433H18.666V21.1256ZM24.9993 15.4544C25.2882 15.4544 25.5271 15.3655 25.716 15.1878C25.9049 15.01 25.9993 14.7851 25.9993 14.5132C25.9993 14.2413 25.9049 14.0165 25.716 13.8387C25.5271 13.661 25.2882 13.5721 24.9993 13.5721C24.7104 13.5721 24.4715 13.661 24.2826 13.8387C24.0938 14.0165 23.9993 14.2413 23.9993 14.5132C23.9993 14.7851 24.0938 15.01 24.2826 15.1878C24.4715 15.3655 24.7104 15.4544 24.9993 15.4544ZM32.9993 38.3081C31.3344 38.3081 29.9181 37.7587 28.7506 36.6598C27.5831 35.561 26.9993 34.2281 26.9993 32.6611C26.9993 31.0941 27.5831 29.7611 28.7506 28.6623C29.9181 27.5635 31.3344 27.014 32.9993 27.014C34.6643 27.014 36.0805 27.5635 37.248 28.6623C38.4155 29.7611 38.9993 31.0941 38.9993 32.6611C38.9993 34.2281 38.4155 35.561 37.248 36.6598C36.0805 37.7587 34.6643 38.3081 32.9993 38.3081ZM32.4096 36.3534H33.5891V33.2161H36.9224V32.106H33.5891V28.9688H32.4096V32.106H29.0762V33.2161H32.4096V36.3534Z" fill="#22A822"/>
</g>
</svg>
