<svg width="305" height="74" viewBox="0 0 305 74" fill="none" xmlns="http://www.w3.org/2000/svg">
<path d="M18.909 24.6974C7.38346 21.576 1 2.73096 1 2.73096V74H304.333V48.1284C304.333 48.1284 296.335 42.4955 292.581 37.8773C289.583 34.1909 288.345 31.8236 286.424 27.6263C284.243 22.8591 284.368 19.8041 282.507 14.9346C280.646 10.065 281.78 5.61258 276.91 2.73096C272.027 -0.158606 267.392 1.08725 261.799 2.73096C254.329 4.92679 253.322 10.5508 247.248 14.9346C241.455 19.1165 238.766 22.7684 231.578 24.6974C224.893 26.4914 220.436 26.2404 213.669 24.6974C205.69 22.8779 202.65 18.8886 195.76 14.9346C190.898 12.1445 189.253 7.26034 183.448 7.6124C176.965 8.00551 176.211 13.8555 172.255 18.3516C168.6 22.5039 168.744 26.5372 163.86 29.5789C159.583 32.242 155.983 34.4171 150.988 32.9959C148.451 32.2743 147.373 31.1364 145.391 29.5789C139.87 25.2406 143.168 17.6797 136.437 14.9346C131.685 12.9968 128.016 13.5827 123.005 14.9346C116.482 16.6942 116.111 22.9807 109.573 24.6974C104.76 25.9614 96.7011 24.6974 96.7011 24.6974C88.8676 21.8102 95.0204 10.4996 87.187 7.6124C82.5565 5.90573 74.3149 7.6124 74.3149 7.6124C70.6128 9.33955 67.599 14.9346 67.599 14.9346C63.6778 16.6194 56.4059 14.9346 56.4059 14.9346H49.1304C41.8974 16.0429 41.0716 22.9098 34.0197 24.6974C28.3531 26.1339 24.5447 26.2237 18.909 24.6974Z" fill="url(#paint0_linear_2503_1037)"/>
<path d="M1 2.7997C1 2.7997 7.37644 22.3932 18.8893 25.6386C24.5188 27.2255 28.323 27.1321 33.9834 25.6386C41.0276 23.7799 41.8525 16.6403 49.0775 15.488H56.345C56.345 15.488 63.6089 17.2397 67.5258 15.488C67.5258 15.488 70.5363 9.67075 74.2343 7.875C74.2343 7.875 82.4669 6.10056 87.0923 7.875C94.9171 10.8769 88.7711 22.6367 96.5959 25.6386C96.5959 25.6386 104.646 26.9527 109.454 25.6386C115.985 23.8536 116.355 17.3175 122.871 15.488C127.877 14.0824 131.541 13.4733 136.288 15.488C143.012 18.3421 139.718 26.2033 145.232 30.7139C147.212 32.3332 148.289 33.5163 150.823 34.2666C155.813 35.7442 159.409 33.4827 163.681 30.7139C168.56 27.5514 168.416 23.3579 172.066 19.0407C176.019 14.3661 176.772 8.28373 183.247 7.875C189.046 7.50896 190.69 12.5871 195.546 15.488C202.429 19.599 205.465 23.7467 213.435 25.6386C220.194 27.2428 224.647 27.5038 231.325 25.6386C238.505 23.6329 241.19 19.836 246.978 15.488C253.045 10.9301 254.051 5.08274 261.513 2.7997C267.099 1.09071 271.729 -0.204619 276.607 2.7997C281.472 5.79576 280.339 10.425 282.197 15.488C284.056 20.5509 283.932 23.7272 286.111 28.6837C288.029 33.0477 289.266 35.5091 292.26 39.3419C296.011 44.1434 304 50 304 50" stroke="#22A822" stroke-width="2"/>
<defs>
<linearGradient id="paint0_linear_2503_1037" x1="152.667" y1="1" x2="152.667" y2="74" gradientUnits="userSpaceOnUse">
<stop stop-color="#EBFFF2"/>
<stop offset="1" stop-color="#D9D9D9" stop-opacity="0"/>
</linearGradient>
</defs>
</svg>
