<svg width="53" height="52" viewBox="0 0 53 52" fill="none" xmlns="http://www.w3.org/2000/svg">
<rect x="0.666992" width="52" height="52" rx="10" fill="#FFEDF7"/>
<mask id="mask0_2502_1033" style="mask-type:alpha" maskUnits="userSpaceOnUse" x="12" y="9" width="30" height="30">
<rect x="12" y="9" width="30" height="30" fill="#D9D9D9"/>
</mask>
<g mask="url(#mask0_2502_1033)">
<path d="M22.3125 23.6874V21.8125H31.6874V23.6874H22.3125ZM22.3125 18.6874V16.8125H31.6874V18.6874H22.3125ZM19.5 26.8125H28.875C29.4311 26.8125 29.9455 26.9327 30.4182 27.1731C30.891 27.4135 31.2924 27.7532 31.6225 28.1923L34.5 31.9423V14.3846C34.5 14.2724 34.4639 14.1803 34.3918 14.1082C34.3197 14.036 34.2275 14 34.1153 14H19.8846C19.7724 14 19.6803 14.036 19.6082 14.1082C19.536 14.1803 19.5 14.2724 19.5 14.3846V26.8125ZM19.8846 34H33.7091L30.1466 29.3389C29.9896 29.1322 29.8025 28.9719 29.5853 28.8581C29.3682 28.7443 29.1314 28.6874 28.875 28.6874H19.5V33.6153C19.5 33.7275 19.536 33.8197 19.6082 33.8918C19.6803 33.9639 19.7724 34 19.8846 34ZM34.1153 35.8749H19.8846C19.2532 35.8749 18.7188 35.6562 18.2813 35.2187C17.8438 34.7812 17.625 34.2467 17.625 33.6153V14.3846C17.625 13.7532 17.8438 13.2188 18.2813 12.7813C18.7188 12.3438 19.2532 12.125 19.8846 12.125H34.1153C34.7467 12.125 35.2812 12.3438 35.7187 12.7813C36.1562 13.2188 36.3749 13.7532 36.3749 14.3846V33.6153C36.3749 34.2467 36.1562 34.7812 35.7187 35.2187C35.2812 35.6562 34.7467 35.8749 34.1153 35.8749Z" fill="#E3097F"/>
</g>
</svg>
