<svg width="306" height="74" viewBox="0 0 306 74" fill="none" xmlns="http://www.w3.org/2000/svg">
<path d="M286.718 24.6974C298.269 21.576 304.666 2.73096 304.666 2.73096V74H0.666016V48.1284C0.666016 48.1284 8.68167 42.4955 12.4446 37.8773C15.4483 34.1909 16.6895 31.8236 18.6143 27.6263C20.8007 22.8591 20.6755 19.8041 22.5406 14.9346C24.4056 10.065 23.2687 5.61258 28.1494 2.73096C33.0436 -0.158606 37.6889 1.08725 43.2933 2.73096C50.7802 4.92679 51.7896 10.5508 57.8763 14.9346C63.683 19.1165 66.3774 22.7684 73.5811 24.6974C80.2805 26.4914 84.7481 26.2404 91.5295 24.6974C99.5264 22.8779 102.573 18.8886 109.478 14.9346C114.35 12.1445 115.999 7.26034 121.817 7.6124C128.314 8.00551 129.07 13.8555 133.035 18.3516C136.697 22.5039 136.553 26.5372 141.448 29.5789C145.734 32.242 149.342 34.4171 154.349 32.9959C156.891 32.2743 157.971 31.1364 159.958 29.5789C165.491 25.2406 162.185 17.6797 168.932 14.9346C173.694 12.9968 177.371 13.5827 182.393 14.9346C188.93 16.6942 189.302 22.9807 195.854 24.6974C200.678 25.9614 208.755 24.6974 208.755 24.6974C216.605 21.8102 210.439 10.4996 218.29 7.6124C222.93 5.90573 231.19 7.6124 231.19 7.6124C234.9 9.33955 237.921 14.9346 237.921 14.9346C241.85 16.6194 249.138 14.9346 249.138 14.9346H256.43C263.679 16.0429 264.506 22.9098 271.574 24.6974C277.253 26.1339 281.07 26.2237 286.718 24.6974Z" fill="url(#paint0_linear_179_939)"/>
<path d="M304.998 2.7997C304.998 2.7997 298.601 22.3932 287.05 25.6386C281.402 27.2255 277.585 27.1321 271.906 25.6386C264.838 23.7799 264.011 16.6403 256.762 15.488H249.47C249.47 15.488 242.183 17.2397 238.253 15.488C238.253 15.488 235.232 9.67075 231.522 7.875C231.522 7.875 223.262 6.10056 218.622 7.875C210.771 10.8769 216.937 22.6367 209.087 25.6386C209.087 25.6386 201.01 26.9527 196.186 25.6386C189.634 23.8536 189.262 17.3175 182.725 15.488C177.703 14.0824 174.026 13.4733 169.264 15.488C162.517 18.3421 165.823 26.2033 160.29 30.7139C158.303 32.3332 157.223 33.5163 154.681 34.2666C149.674 35.7442 146.066 33.4827 141.78 30.7139C136.885 27.5514 137.029 23.3579 133.367 19.0407C129.402 14.3661 128.646 8.28373 122.149 7.875C116.331 7.50896 114.682 12.5871 109.81 15.488C102.905 19.599 99.8584 23.7467 91.8615 25.6386C85.0802 27.2428 80.6125 27.5038 73.9132 25.6386C66.7095 23.6329 64.015 19.836 58.2084 15.488C52.1216 10.9301 51.1123 5.08274 43.6254 2.7997C38.021 1.09071 33.3756 -0.204619 28.4814 2.7997C23.6007 5.79576 24.7376 10.425 22.8726 15.488C21.0075 20.5509 21.1327 23.7272 18.9464 28.6837C17.0215 33.0477 15.7804 35.5091 12.7766 39.3419C9.01371 44.1434 0.998047 50 0.998047 50" stroke="#FFB12A" stroke-width="2"/>
<defs>
<linearGradient id="paint0_linear_179_939" x1="152.666" y1="1" x2="152.666" y2="74" gradientUnits="userSpaceOnUse">
<stop stop-color="#FFF8DF"/>
<stop offset="1" stop-color="white"/>
</linearGradient>
</defs>
</svg>
